<svg xmlns="http://www.w3.org/2000/svg" viewBox="0 0 800 600" height="600" width="800"><path d="M165.59 313.03c-4.142 0-10.86 1.438-15.826 6.524-4.966 5.086-6.18 11.533-6.18 15.539v75.984c0 4.062 1.319 10.635 6.34 15.659 5.021 5.024 11.6 6.347 15.666 6.347H583.35a62.436 62.436 0 0011.85 1.133c8.194 0 16.365-1.597 23.886-4.796l.114-.048c7.18-3.108 13.768-7.514 19.284-13.03 5.527-5.527 9.954-12.123 13.042-19.316 3.255-7.535 4.888-15.741 4.888-23.968 0-8.218-1.63-16.414-4.879-23.942-3.076-7.212-7.503-13.826-13.055-19.341-5.515-5.552-12.129-9.98-19.34-13.055-7.53-3.25-15.726-4.878-23.942-4.878a61.73 61.73 0 00-12.071 1.19zm429.75 58.057c.086-.004.152 0 .16.014.058.026.117.053.177.078.083.037.083.033.085.03-.004 0-.006 0 0 .007.114.121.153.137.314.549.081.209.18.477.18 1.292 0 .728-.087 1.02-.209 1.34-.105.258-.164.337-.236.412-.048.052-.093.096-.324.202a2.518 2.518 0 01-.287.007c-.18 0-.208-.004-.253-.007v-3.903c.106-.006.262-.017.392-.02z" style="line-height:1.25;-inkscape-font-specification:'Cocogoose Pro, Normal';font-variant-ligatures:normal;font-variant-caps:normal;font-variant-numeric:normal;font-variant-east-asian:normal;text-align:center" font-weight="400" font-size="268.354" font-family="'Cocogoose Pro'" letter-spacing="-12.5" text-anchor="middle" fill="#fff"/><path d="M395.814 0L174.868 87.973v242.838c0 91.381 113.52 209.943 220.946 269.189C503.241 540.754 616.76 422.192 616.76 330.81V87.974z" fill="#fff"/><path d="M395.814 21.13L192.3 102.162V329.41c0 93.002 142.238 211.057 203.514 244.644 61.276-33.588 203.513-151.642 203.513-244.644V102.162zm0 30.759l175.135 69.733V329.41c0 93.002-152.178 197.601-175.135 210.185-22.957-12.584-175.135-117.183-175.135-210.185V121.622z" fill="#717171"/><path d="M174.868 316.622v14.189c0 50.095 34.119 108.358 82.644 160.54h276.605c48.525-52.182 82.643-110.445 82.643-160.54v-14.19z" fill="#fff" paint-order="markers fill stroke"/><path d="M311.374 461.614q0 15.55-16.715 15.55-8.086 0-13.372-3.11l1.166-9.641q5.053 3.11 11.973 3.11 6.453 0 6.453-4.898 0-2.1-2.1-3.421-2.021-1.4-4.975-2.332-2.877-1.011-5.831-2.333-2.877-1.4-4.976-4.354-2.021-3.032-2.021-7.541 0-6.453 4.198-10.34 4.276-3.965 12.362-3.965 6.375 0 12.05 2.41l-.855 9.563q-5.131-2.177-11.195-2.177-5.753 0-5.753 4.043 0 1.943 2.02 3.265 2.022 1.244 4.899 2.177 2.876.933 5.753 2.332 2.876 1.322 4.898 4.276 2.021 2.955 2.021 7.386zm26.44 15.471q-11.273 0-16.56-6.142-5.21-6.22-5.21-18.97 0-23.712 19.127-23.712 17.96 0 17.96 21.769 0 3.42-.312 5.676h-25.034q.31 6.219 2.954 8.785 2.721 2.487 8.474 2.487 5.831 0 11.429-2.177l1.244 9.408q-5.986 2.877-14.072 2.877zm-10.263-29.232h15.161q-.078-5.364-2.021-7.62-1.866-2.253-5.443-2.253-3.887 0-5.675 2.254-1.71 2.177-2.022 7.619zm48.441 9.174q-2.721 0-5.286-.466-1.478.855-1.478 2.254 0 1.866 2.954 2.177l10.03.778q7.463.622 10.806 3.498 3.343 2.877 3.343 8.396 0 14.928-19.903 14.928-9.018 0-13.45-3.265-4.43-3.266-4.43-8.863 0-4.432 3.575-7.775-3.498-2.41-3.498-6.764 0-5.286 5.442-8.085-4.898-3.577-4.898-11.04 0-14.539 16.715-14.539 6.686 0 10.807 2.488l7.541-2.565 2.41 5.52-4.742 3.887q.7 2.254.7 5.209 0 14.227-16.638 14.227zm4.198 14.539l-9.796-.778q-2.099 1.71-2.099 4.043 0 4.976 7.853 4.976 5.597 0 7.774-1.167 2.177-1.088 2.177-3.343 0-1.71-1.244-2.565-1.244-.856-4.665-1.166zm-4.198-34.597q-3.032 0-4.354 1.4-1.244 1.399-1.244 4.586 0 3.421 1.322 4.743 1.4 1.243 4.12 1.243 3.343 0 4.588-1.321 1.243-1.322 1.243-4.665t-1.321-4.665q-1.244-1.321-4.354-1.321zm61.813-7.93v31.098q0 16.87-18.193 16.87-18.27 0-18.27-16.87v-31.098h11.351v31.02q0 6.686 6.92 6.686 6.919 0 6.919-6.686v-31.02zm19.845 47.191H446.3v-46.88l9.096-.467.933 7.542h.233q4.043-8.086 11.818-8.086 2.798 0 4.664.622l-.7 11.584q-1.943-.7-4.664-.7-4.432 0-7.23 3.266-2.8 3.187-2.8 8.863zm53.198-42.293q4.665 5.675 4.665 18.892 0 13.217-4.665 18.814-4.587 5.598-15.083 5.598-10.418 0-15.16-5.598-4.665-5.597-4.665-18.814 0-13.14 4.743-18.815 4.82-5.753 15.16-5.753t15.005 5.676zm-21.38 6.997q-1.788 3.032-1.788 11.895t1.788 11.973q1.788 3.032 6.375 3.032 4.51 0 6.22-3.033 1.71-3.11 1.71-11.972 0-8.863-1.71-11.895-1.71-3.11-6.22-3.11-4.587 0-6.375 3.11z" style="line-height:1.25;-inkscape-font-specification:'ClanOT, Bold Semi-Condensed';font-variant-ligatures:normal;font-variant-caps:normal;font-variant-numeric:normal;font-variant-east-asian:normal;text-align:center" font-weight="700" font-stretch="semi-condensed" font-size="191.773" font-family="ClanOT" text-anchor="middle" fill="#717171"/><path d="M163.21 411.077q0 2.38 2.38 2.38h55.133q2.436 0 2.436-2.38v-13.882q0-2.38-2.436-2.38h-36.49v-13.882h26.914q2.663 0 2.663-2.38v-11.22q0-1.303-.737-1.87-.68-.622-1.926-.622h-26.915v-13.43h35.471q2.38 0 2.38-2.38v-13.938q0-2.437-2.38-2.437H165.59q-2.38 0-2.38 2.437zm66.243-10.369q2.72 2.833 6.062 5.326 3.4 2.493 7.196 4.363 3.854 1.87 7.99 3.003 4.137 1.077 8.33 1.077 6.686 0 12.352-1.87t9.803-5.27q4.193-3.456 6.516-8.329 2.38-4.873 2.38-10.823 0-5.666-1.927-9.632-1.87-3.967-5.326-6.8-3.4-2.89-8.216-4.986-4.76-2.096-10.54-4.023-2.946-.963-5.326-1.813-2.323-.907-3.966-1.814-1.643-.963-2.493-2.04-.85-1.133-.85-2.663 0-1.53.736-2.55.794-1.076 1.984-1.7 1.246-.679 2.776-.906 1.53-.283 3.06-.283 4.023 0 7.139 1.586 3.117 1.587 6.063 4.25.737.623 1.417 1.077.68.396 1.416.396.907 0 1.757-.85l8.33-8.895q1.302-1.304 1.302-2.494 0-1.19-1.133-2.493-2.096-2.323-5.156-4.25-3.003-1.983-6.516-3.4-3.457-1.416-7.253-2.152-3.74-.794-7.423-.794-6.573 0-12.012 1.643-5.383 1.587-9.293 4.533-3.853 2.89-6.006 7.027-2.153 4.136-2.153 9.179 0 4.76 1.7 8.67 1.756 3.909 5.1 7.139 3.342 3.23 8.329 5.893 5.043 2.663 11.558 4.93 1.474.51 3.4 1.246 1.927.737 3.683 1.757 1.757.963 2.947 2.323 1.19 1.303 1.19 3.003 0 1.53-.397 2.946-.34 1.36-1.36 2.38-1.02 1.02-2.777 1.643-1.756.624-4.532.624-2.493 0-4.873-.85-2.38-.85-4.533-2.097-2.153-1.303-4.08-2.776-1.87-1.53-3.4-2.777-.623-.566-1.303-.906-.623-.34-1.247-.34-.85 0-1.643.793l-9.406 8.953q-.68.68-.906 1.303-.17.623 0 1.246.17.567.566 1.133.454.567.964 1.134zm64.174-51.847q0 2.437 2.38 2.437h19.208v59.779q0 2.38 2.38 2.38h15.695q2.437 0 2.437-2.38v-59.779h19.322q2.38 0 2.38-2.437v-13.768q0-2.437-2.38-2.437h-59.043q-2.38 0-2.38 2.437zm92.604-13.768q0-1.02-.453-1.7-.397-.737-1.87-.737h-16.602q-.963 0-1.586.737-.567.736-.567 1.7v45.84q0 9.35 2.776 15.808 2.833 6.46 7.536 10.483 4.76 3.967 10.993 5.723 6.233 1.757 13.089 1.757 6.856 0 13.089-1.7 6.233-1.757 10.936-5.666 4.76-3.967 7.536-10.427 2.833-6.459 2.833-15.978v-45.84q0-.964-.68-1.7-.68-.737-1.983-.737h-15.865q-1.134 0-1.814.737-.68.736-.68 1.7v46.123q0 3.626-1.076 6.403-1.077 2.72-2.89 4.59-1.813 1.87-4.25 2.833-2.436.963-5.156.963-2.607 0-5.043-.794-2.38-.85-4.25-2.606-1.813-1.756-2.946-4.59-1.077-2.833-1.077-6.799zm107.337 38.02q0 4.363-1.643 8.216-1.587 3.797-4.42 6.687-2.833 2.833-6.743 4.532-3.853 1.644-8.386 1.644h-7.593v-42.27h7.593q4.533 0 8.386 1.7 3.91 1.642 6.743 4.532 2.833 2.834 4.42 6.687 1.643 3.853 1.643 8.272zm-49.807 37.964q0 2.38 2.38 2.38h28.218q5.61 0 10.71-1.53 5.156-1.53 9.632-4.193 4.476-2.72 8.16-6.46 3.683-3.796 6.289-8.272 2.607-4.476 4.023-9.52 1.473-5.1 1.473-10.369 0-5.61-1.586-10.766-1.587-5.213-4.363-9.689-2.777-4.476-6.573-8.16-3.797-3.739-8.273-6.346-4.476-2.606-9.462-4.023-4.93-1.473-10.03-1.473H446.14q-2.38 0-2.38 2.437zm80.154 0q0 2.38 2.38 2.38h16.262q2.38 0 2.38-2.38v-75.984q0-2.437-2.38-2.437h-16.262q-2.38 0-2.38 2.437zm29.695-38.02q0 8.612 3.23 16.205 3.286 7.536 8.952 13.203 5.666 5.61 13.202 8.895 7.593 3.23 16.206 3.23t16.205-3.23q7.594-3.286 13.203-8.895 5.666-5.667 8.896-13.203 3.286-7.593 3.286-16.206 0-8.612-3.286-16.205-3.23-7.593-8.896-13.202-5.61-5.667-13.203-8.896-7.592-3.287-16.205-3.287t-16.206 3.287q-7.536 3.23-13.202 8.896-5.666 5.61-8.953 13.202-3.23 7.593-3.23 16.205zm20.908 0q0-4.533 1.53-8.443 1.587-3.91 4.307-6.856 2.776-2.947 6.572-4.59 3.797-1.7 8.273-1.7 4.533 0 8.273 1.7 3.796 1.643 6.573 4.59 2.776 2.946 4.306 6.856 1.53 3.91 1.53 8.442 0 4.477-1.53 8.443-1.53 3.91-4.306 6.857-2.777 2.89-6.573 4.589-3.74 1.7-8.273 1.7-4.476 0-8.273-1.7-3.796-1.7-6.572-4.59-2.72-2.946-4.307-6.856-1.53-3.966-1.53-8.443z" style="line-height:1.25;-inkscape-font-specification:'Cocogoose Pro, Normal';font-variant-ligatures:normal;font-variant-caps:normal;font-variant-numeric:normal;font-variant-east-asian:normal;text-align:center" font-weight="400" font-size="268.354" font-family="'Cocogoose Pro'" letter-spacing="-12.5" text-anchor="middle" fill="#3f3f3f"/><path fill="#7e7e7e" paint-order="markers fill stroke" d="M319.598 148.784h40.946v167.432h-40.946z"/><path fill="#8d8d8d" paint-order="markers fill stroke" d="M331.963 160.135h16.216v64.054h-16.216zm-12.365 135.811h40.946v8.108h-40.946z"/><path opacity=".1" paint-order="markers fill stroke" d="M340.07 148.784h20.474v167.432H340.07z"/><path fill="#7d7d7d" paint-order="markers fill stroke" d="M360.544 148.784h40.54v167.432h-40.54z"/><path fill="#9d9d9d" paint-order="markers fill stroke" d="M372.909 162.568h15.81V180h-15.81z"/><path fill="#7d7d7d" paint-order="markers fill stroke" d="M360.544 272.027h40.54v9.324h-40.54z"/><path fill="#737373" paint-order="markers fill stroke" d="M360.544 285.81h40.54v16.622h-40.54z"/><path opacity=".1" paint-order="markers fill stroke" d="M380.814 148.784h20.27v167.432h-20.27z"/><path fill="#7d7d7d" paint-order="markers fill stroke" d="M401.084 136.216h26.757v180h-26.757z"/><path fill="#767676" paint-order="markers fill stroke" d="M409.8 151.216h9.325v17.838H409.8zm-8.716 117.73h26.757v10.04h-26.757z"/><path fill="#8d8d8d" paint-order="markers fill stroke" d="M401.084 283.378h26.757v18.244h-26.757z"/><path opacity=".1" paint-order="markers fill stroke" d="M414.463 136.216h13.378v180h-13.378z"/><path fill="#8d8d8d" paint-order="markers fill stroke" d="M427.841 148.784h61.216v167.432h-61.216z"/><path fill="#464646" paint-order="markers fill stroke" d="M427.841 163.378h61.216v17.027h-61.216zm18.446 37.298h24.324v64.46h-24.324z"/><path fill="#737373" paint-order="markers fill stroke" d="M427.841 284.595h61.216v17.432h-61.216z"/><path opacity=".1" fill="#fff" paint-order="markers fill stroke" d="M458.45 148.784h30.607v167.432H458.45z"/><path fill="#8d8d8d" paint-order="markers fill stroke" d="M295.136 135.605l25.28 5.836-40.49 175.387-25.281-5.837z"/><path fill="#7d7d7d" paint-order="markers fill stroke" d="M294.952 152.62l18.17 4.196-1.276 5.53-18.17-4.195zm-1.824 7.901l18.17 4.196-1.276 5.53-18.17-4.195zm-1.824 7.9l18.17 4.196-1.276 5.53-18.17-4.195z"/><ellipse cx="331.049" cy="221.008" rx="4.865" ry="8.919" transform="rotate(13)" fill="#7d7d7d" paint-order="markers fill stroke"/><path opacity=".1" fill="#fff" paint-order="markers fill stroke" d="M307.776 138.523l12.64 2.918-40.49 175.387-12.64-2.918z"/><path fill="#7e7e7e" paint-order="markers fill stroke" d="M488.395 137.949l25.753-3.162 21.887 178.256-25.753 3.162z"/><path fill="#8d8d8d" paint-order="markers fill stroke" d="M492.397 170.542l25.753-3.162 3.606 29.374-25.753 3.162z"/><path fill="#636363" paint-order="markers fill stroke" d="M491.606 164.104l25.753-3.162.79 6.438-25.752 3.162zm4.397 35.812l25.753-3.162.79 6.438-25.752 3.162z"/><ellipse ry="12.546" rx="7.166" cy="350.9" cx="480.863" transform="rotate(-7)" fill="#8d8d8d" paint-order="markers fill stroke"/><path opacity=".1" paint-order="markers fill stroke" d="M501.271 136.368l12.877-1.581 21.887 178.256-12.877 1.58z"/></svg>